<?xml version="1.0" encoding="UTF-8"?>
<svg version="1.1" xmlns="http://www.w3.org/2000/svg" width="40" height="40">
<path d="M0 0 C3.65198661 1.66968259 5.54965902 4.34778203 7.8125 7.625 C9.78069098 13.21880593 11.39260105 18.9048011 8.859375 24.53515625 C7.35540093 26.81010692 5.7224801 28.88816322 4 31 C3.195625 32.5159375 3.195625 32.5159375 2.375 34.0625 C-1.20134165 36.98004187 -4.41801289 36.98472204 -8.9453125 36.82421875 C-14.57393169 35.30549925 -17.15328284 30.81752134 -20 26 C-20.4021875 25.34128906 -20.804375 24.68257812 -21.21875 24.00390625 C-23.03398548 19.34782724 -21.90755184 13.45308568 -20.2109375 8.8671875 C-15.50777352 0.03441613 -9.49496711 -1.47956805 0 0 Z M-12 2 C-12 2.66 -12 3.32 -12 4 C-12.8971875 4.309375 -12.8971875 4.309375 -13.8125 4.625 C-17.87764397 7.18023335 -19.13503068 11.56958658 -20.25 16.0625 C-20.70590306 20.90336155 -18.4521512 24.20644629 -15.8125 28.0625 C-15.41385742 28.64717041 -15.01521484 29.23184082 -14.60449219 29.83422852 C-13.28329777 31.69300664 -13.28329777 31.69300664 -11 34 C-9.68 34 -8.36 34 -7 34 C-7 23.77 -7 13.54 -7 3 C-8.65 2.67 -10.3 2.34 -12 2 Z M-4 2 C-5.33996932 3.11347596 -5.33996932 3.11347596 -5.11352539 5.95922852 C-5.10828857 7.25272217 -5.10305176 8.54621582 -5.09765625 9.87890625 C-5.0962413 10.5655687 -5.09482635 11.25223114 -5.09336853 11.95970154 C-5.08775479 14.16067801 -5.07520007 16.36155409 -5.0625 18.5625 C-5.05748676 20.05143083 -5.05292355 21.54036324 -5.04882812 23.02929688 C-5.03778093 26.68623075 -5.02050713 30.34310558 -5 34 C-0.86028781 33.38944679 -0.86028781 33.38944679 2.2734375 30.59375 C7.04903703 23.98028974 7.04903703 23.98028974 8.25 16.1875 C7.27388916 11.93444561 5.51482398 8.55033973 3 5 C2.01 4.67 1.02 4.34 0 4 C0 3.34 0 2.68 0 2 C-1.32 2 -2.64 2 -4 2 Z " fill="#5045E4" transform="translate(26,2)"/>
<path d="M0 0 C1.98 0 3.96 0 6 0 C6.66 1.32 7.32 2.64 8 4 C7.01 4 6.02 4 5 4 C5.99 5.485 5.99 5.485 7 7 C6.01 7 5.02 7 4 7 C3.34 6.34 2.68 5.68 2 5 C2 4.01 2 3.02 2 2 C1.34 2 0.68 2 0 2 C0 1.34 0 0.68 0 0 Z " fill="#4F46E3" transform="translate(23,18)"/>
<path d="M0 0 C1.98 0 3.96 0 6 0 C6 0.66 6 1.32 6 2 C5.34 2 4.68 2 4 2 C3.896875 2.61875 3.79375 3.2375 3.6875 3.875 C3 6 3 6 0 8 C0 6.66666667 0 5.33333333 0 4 C-0.66 4 -1.32 4 -2 4 C-1.34 2.68 -0.68 1.36 0 0 Z " fill="#4F46E3" transform="translate(11,18)"/>
<path d="M0 0 C0.66 0 1.32 0 2 0 C5 3.46153846 5 3.46153846 5 6 C4.34 6 3.68 6 3 6 C3 6.66 3 7.32 3 8 C2.01 7.67 1.02 7.34 0 7 C0 4.69 0 2.38 0 0 Z " fill="#4F46E3" transform="translate(22,25)"/>
<path d="M0 0 C0.66 0 1.32 0 2 0 C2 2.31 2 4.62 2 7 C1.01 7.33 0.02 7.66 -1 8 C-1 7.34 -1 6.68 -1 6 C-1.66 6 -2.32 6 -3 6 C-2 4 -1 2 0 0 Z " fill="#4F46E3" transform="translate(16,25)"/>
<path d="M0 0 C1.98 0.99 3.96 1.98 6 3 C4.1875 5 4.1875 5 2 7 C1.01 7 0.02 7 -1 7 C-0.67 4.69 -0.34 2.38 0 0 Z " fill="#5248E5" transform="translate(23,6)"/>
<path d="M0 0 C0.144375 0.598125 0.28875 1.19625 0.4375 1.8125 C0.8872439 3.56150404 1.42892341 5.28677023 2 7 C-1.26954202 6.43628586 -2.82575883 5.50037734 -5 3 C-3.35 2.01 -1.7 1.02 0 0 Z " fill="#4C43E5" transform="translate(16,6)"/>
<path d="M0 0 C2.97 0.99 5.94 1.98 9 3 C8.67 3.66 8.34 4.32 8 5 C5.69 4.67 3.38 4.34 1 4 C0.67 2.68 0.34 1.36 0 0 Z " fill="#5046E4" transform="translate(9,12)"/>
<path d="M0 0 C0.33 0.99 0.66 1.98 1 3 C-1.57213134 4.61949011 -2.67669159 5.04408751 -5.75 4.625 C-6.4925 4.41875 -7.235 4.2125 -8 4 C-7.67 3.34 -7.34 2.68 -7 2 C-4.6859378 1.26924352 -2.35171131 0.59861742 0 0 Z " fill="#5046E4" transform="translate(30,12)"/>
</svg>
